<?xml version="1.0" encoding="UTF-8" standalone="no"?>
<!-- Created with Inkscape (http://www.inkscape.org/) -->

<svg
   xmlns:dc="http://purl.org/dc/elements/1.1/"
   xmlns:cc="http://creativecommons.org/ns#"
   xmlns:rdf="http://www.w3.org/1999/02/22-rdf-syntax-ns#"
   xmlns:svg="http://www.w3.org/2000/svg"
   xmlns="http://www.w3.org/2000/svg"
   xmlns:sodipodi="http://sodipodi.sourceforge.net/DTD/sodipodi-0.dtd"
   xmlns:inkscape="http://www.inkscape.org/namespaces/inkscape"
   width="128.375"
   height="111.53125"
   id="svg2"
   version="1.1"
   inkscape:version="0.48.2 r9819"
   sodipodi:docname="New document 1">
  <defs
     id="defs4" />
  <sodipodi:namedview
     id="base"
     pagecolor="#ffffff"
     bordercolor="#666666"
     borderopacity="1.0"
     inkscape:pageopacity="0.0"
     inkscape:pageshadow="2"
     inkscape:zoom="2.1649824"
     inkscape:cx="82.284202"
     inkscape:cy="76.048518"
     inkscape:document-units="px"
     inkscape:current-layer="layer2"
     showgrid="false"
     inkscape:window-width="983"
     inkscape:window-height="579"
     inkscape:window-x="307"
     inkscape:window-y="79"
     inkscape:window-maximized="0"
     fit-margin-top="0"
     fit-margin-left="0"
     fit-margin-right="0"
     fit-margin-bottom="0" />
  <metadata
     id="metadata7">
    <rdf:RDF>
      <cc:Work
         rdf:about="">
        <dc:format>image/svg+xml</dc:format>
        <dc:type
           rdf:resource="http://purl.org/dc/dcmitype/StillImage" />
        <dc:title></dc:title>
      </cc:Work>
    </rdf:RDF>
  </metadata>
  <g
     inkscape:groupmode="layer"
     id="layer2"
     inkscape:label="Layer"
     transform="translate(-105.875,-45.125)">
    <path
       style="fill:#ff0000;fill-opacity:1;stroke:#ffffff;stroke-width:2;stroke-linecap:round;stroke-linejoin:round;stroke-miterlimit:4;stroke-opacity:1;stroke-dashoffset:0"
       d="m 233.25826,100.42723 c 0,7.11897 -7.38235,26.23496 -19.318,38.02843 -11.93565,11.79348 -26.11511,17.18824 -44.3283,17.18824 -18.21319,0 -34.24023,-7.00074 -46.17588,-16.82582 -11.93565,-9.82507 -16.54662,-24.78398 -16.54662,-39.776543 0,-14.99256 2.76338,-30.875264 14.69903,-40.70034 11.93565,-9.825076 27.5008,-12.206832 45.71398,-12.206832 18.21319,0 39.78301,4.144758 51.71866,14.15849 11.93565,10.013731 14.23713,33.015405 14.23713,40.134375 z"
       id="path3819"
       inkscape:connector-curvature="0"
       sodipodi:nodetypes="zsssssssz" />
    <path
       transform="matrix(0.99227324,0.08523486,-0.1240718,0.68167195,34.688234,33.388886)"
       style="fill:#008000;fill-opacity:1;stroke:#ffffff;stroke-width:2.41300344;stroke-linecap:round;stroke-linejoin:round;stroke-miterlimit:4;stroke-opacity:1;stroke-dasharray:none;stroke-dashoffset:0"
       d="m 182.16096,24.380864 c 0,0 -24.35618,-1.265795 -25.88803,4.279721 -1.53185,5.545517 13.40115,26.585102 13.40115,26.585102 0,0 -17.9309,-16.897021 -27.6914,-17.788503 -9.7605,-0.891483 -26.88333,12.718257 -26.88333,12.718257 0,0 11.93084,-14.382091 11.07203,-19.612568 -0.85881,-5.230476 -24.94963,-2.909976 -24.94963,-2.909976 0,0 21.07198,-5.378227 22.47071,-9.273185 1.39873,-3.894958 -10.1909,-12.0794137 -10.1909,-12.0794137 0,0 17.58284,9.5347987 24.60676,8.0102737 7.02392,-1.524526 15.17486,-13.287039 15.17486,-13.287039 0,0 -3.17821,14.246824 -1.15564,17.017453 2.02256,2.77063 30.03342,6.339878 30.03342,6.339878 z"
       id="path3824"
       inkscape:connector-curvature="0"
       sodipodi:nodetypes="czczczczczczc" />
    <path
       style="fill:#008000;fill-opacity:1;stroke:#ffffff;stroke-width:2;stroke-linecap:round;stroke-linejoin:round;stroke-miterlimit:4;stroke-opacity:1;stroke-dasharray:none;stroke-dashoffset:0"
       d="m 164.12604,61.901489 0,-5.985116 12.08554,0 0,5.985116"
       id="rect3828"
       inkscape:connector-curvature="0"
       sodipodi:nodetypes="cccc" />
    <path
       transform="matrix(1.2322757,0,0,0.89247312,-23.290449,20.663487)"
       style="fill:#ffffff;fill-opacity:1;stroke:none"
       d="m 207.39199,89.074905 c -3.3735,11.862105 -22.26962,20.443145 -50.20295,20.443145 -27.93334,0 -46.45461,-8.58104 -50.95261,-20.443145 8.24632,7.287168 23.01927,16.820305 50.95261,16.820305 27.93333,0 38.58313,-6.42785 50.20295,-16.820305 z"
       id="path3833"
       inkscape:connector-curvature="0"
       sodipodi:nodetypes="cscsc" />
    <path
       sodipodi:type="star"
       style="fill:#ffffff;fill-opacity:1;stroke:none"
       id="path3844"
       sodipodi:sides="3"
       sodipodi:cx="163.51172"
       sodipodi:cy="80.991699"
       sodipodi:r1="7.8522577"
       sodipodi:r2="3.9261289"
       sodipodi:arg1="1.5707963"
       sodipodi:arg2="2.6179939"
       inkscape:flatsided="true"
       inkscape:rounded="0"
       inkscape:randomized="0"
       d="m 163.51172,88.843957 -6.80026,-11.778386 13.60051,-1e-6 z"
       inkscape:transform-center-y="1.9630645"
       transform="translate(6.4665653,24.480569)" />
    <rect
       style="fill:#ffffff;fill-opacity:1;stroke:none"
       id="rect3846"
       width="2.7713852"
       height="8.3141556"
       x="148.2691"
       y="105.93415" />
    <rect
       style="fill:#ffffff;fill-opacity:1;stroke:none"
       id="rect3846-8"
       width="2.7713852"
       height="8.3141556"
       x="136.25977"
       y="104.08657" />
    <rect
       style="fill:#ffffff;fill-opacity:1;stroke:none"
       id="rect3846-8-0"
       width="2.7713852"
       height="8.3141556"
       x="127.48371"
       y="102.23898" />
    <rect
       style="fill:#ffffff;fill-opacity:1;stroke:none"
       id="rect3846-8-2"
       width="2.7713852"
       height="8.3141556"
       x="119.16956"
       y="99.005699" />
  </g>
</svg>
